<svg width="293" height="108" viewBox="0 0 293 108" fill="none" xmlns="http://www.w3.org/2000/svg">
<g filter="url(#filter0_i_626_97)">
<path d="M1 98.5001V18.5001V10.0001C1 5.02953 5.02944 1.00009 10 1.00009L243.16 1C248.131 1 251.971 5.023 251.856 9.99223C251.548 23.2995 253.529 40.4663 280.619 37.3272C286.452 36.6512 292 40.8598 292 46.7317V98.5001C292 103.471 287.971 107.5 283 107.5H10C5.02944 107.5 1 103.471 1 98.5001Z" fill="black" fill-opacity="0.6"/>
</g>
<path d="M1 98.5001V18.5001V10.0001C1 5.02953 5.02944 1.00009 10 1.00009L243.16 1C248.131 1 251.971 5.023 251.856 9.99223C251.548 23.2995 253.529 40.4663 280.619 37.3272C286.452 36.6512 292 40.8598 292 46.7317V98.5001C292 103.471 287.971 107.5 283 107.5H10C5.02944 107.5 1 103.471 1 98.5001Z" stroke="#25B3AD" stroke-width="0.2"/>
<defs>
<filter id="filter0_i_626_97" x="0.900024" y="0.899902" width="291.2" height="106.7" filterUnits="userSpaceOnUse" color-interpolation-filters="sRGB">
<feFlood flood-opacity="0" result="BackgroundImageFix"/>
<feBlend mode="normal" in="SourceGraphic" in2="BackgroundImageFix" result="shape"/>
<feColorMatrix in="SourceAlpha" type="matrix" values="0 0 0 0 0 0 0 0 0 0 0 0 0 0 0 0 0 0 127 0" result="hardAlpha"/>
<feOffset/>
<feGaussianBlur stdDeviation="3.4"/>
<feComposite in2="hardAlpha" operator="arithmetic" k2="-1" k3="1"/>
<feColorMatrix type="matrix" values="0 0 0 0 0.145098 0 0 0 0 0.701961 0 0 0 0 0.678431 0 0 0 1 0"/>
<feBlend mode="normal" in2="shape" result="effect1_innerShadow_626_97"/>
</filter>
</defs>
</svg>
